<?xml version="1.0" encoding="UTF-8" standalone="no"?>
<svg
   xmlns:dc="http://purl.org/dc/elements/1.1/"
   xmlns:cc="http://creativecommons.org/ns#"
   xmlns:rdf="http://www.w3.org/1999/02/22-rdf-syntax-ns#"
   xmlns:svg="http://www.w3.org/2000/svg"
   xmlns="http://www.w3.org/2000/svg"
   viewBox="0 0 1048.2013 281.76132"
   height="281.76132"
   width="1048.2013"
   xml:space="preserve"
   id="svg2"
   version="1.1"><metadata
     id="metadata8"><rdf:RDF><cc:Work
         rdf:about=""><dc:format>image/svg+xml</dc:format><dc:type
           rdf:resource="http://purl.org/dc/dcmitype/StillImage" /><dc:title></dc:title></cc:Work></rdf:RDF></metadata><defs
     id="defs6"><clipPath
       id="clipPath18"
       clipPathUnits="userSpaceOnUse"><path
         id="path16"
         d="M 0,211.321 H 786.151 V 0 H 0 Z" /></clipPath><radialGradient
       id="radialGradient150"
       spreadMethod="pad"
       gradientTransform="matrix(-8.1154728,62.190227,91.453232,11.934127,138.53197,81.121895)"
       gradientUnits="userSpaceOnUse"
       r="1"
       cy="0"
       cx="0"
       fy="-0.60890698"
       fx="-0.399322"><stop
         id="stop144"
         offset="0"
         style="stop-opacity:1;stop-color:#92c462" /><stop
         id="stop146"
         offset="0.453931"
         style="stop-opacity:1;stop-color:#3baa35" /><stop
         id="stop148"
         offset="1"
         style="stop-opacity:1;stop-color:#008c3c" /></radialGradient><radialGradient
       id="radialGradient176"
       spreadMethod="pad"
       gradientTransform="matrix(90.676125,0,0,-73.622017,101.03842,130.74706)"
       gradientUnits="userSpaceOnUse"
       r="1"
       cy="0"
       cx="0"
       fy="-0.46522599"
       fx="0.53598303"><stop
         id="stop166"
         offset="0"
         style="stop-opacity:1;stop-color:#a3ccee" /><stop
         id="stop168"
         offset="0.44905383"
         style="stop-opacity:1;stop-color:#2581c4" /><stop
         id="stop170"
         offset="0.5382"
         style="stop-opacity:1;stop-color:#2581c4" /><stop
         id="stop172"
         offset="0.986586"
         style="stop-opacity:1;stop-color:#005ca9" /><stop
         id="stop174"
         offset="1"
         style="stop-opacity:1;stop-color:#005ca9" /></radialGradient><clipPath
       id="clipPath186"
       clipPathUnits="userSpaceOnUse"><path
         id="path184"
         d="M 0,211.321 H 786.151 V 0 H 0 Z" /></clipPath><clipPath
       id="clipPath194"
       clipPathUnits="userSpaceOnUse"><path
         id="path192"
         d="M 32.0853,185.972 H 194.869 V 23.1877 H 32.0853 Z" /></clipPath><clipPath
       id="clipPath198"
       clipPathUnits="userSpaceOnUse"><path
         id="path196"
         d="m 113.478,23.188 c 44.951,0 81.391,36.44 81.391,81.391 0,44.952 -36.44,81.393 -81.391,81.393 -44.952,0 -81.393,-36.441 -81.393,-81.393 0,-44.951 36.441,-81.391 81.393,-81.391" /></clipPath><radialGradient
       id="radialGradient216"
       spreadMethod="pad"
       gradientTransform="matrix(0,-81.392029,81.392029,0,113.47732,104.57969)"
       gradientUnits="userSpaceOnUse"
       r="1"
       cy="0"
       cx="0"
       fy="0"
       fx="0"><stop
         id="stop204"
         offset="0"
         style="stop-opacity:0;stop-color:#ffffff" /><stop
         id="stop206"
         offset="0.738051"
         style="stop-opacity:0;stop-color:#ffffff" /><stop
         id="stop208"
         offset="0.76040314"
         style="stop-opacity:0;stop-color:#ffffff" /><stop
         id="stop210"
         offset="0.873213"
         style="stop-opacity:0.65000381;stop-color:#ffffff" /><stop
         id="stop212"
         offset="0.94338086"
         style="stop-opacity:1;stop-color:#ffffff" /><stop
         id="stop214"
         offset="1"
         style="stop-opacity:1;stop-color:#ffffff" /></radialGradient><mask
       id="mask218"
       height="1"
       width="1"
       y="0"
       x="0"
       maskUnits="userSpaceOnUse"><g
         id="g228"><g
           id="g226"><g
             id="g224"><g
               id="g222"><path
                 id="path220"
                 style="fill:url(#radialGradient216);stroke:none"
                 d="M -32768,32767 H 32767 V -32768 H -32768 Z" /></g></g></g></g></mask><radialGradient
       id="radialGradient242"
       spreadMethod="pad"
       gradientTransform="matrix(0,-81.392029,81.392029,0,113.47732,104.57969)"
       gradientUnits="userSpaceOnUse"
       r="1"
       cy="0"
       cx="0"
       fy="0"
       fx="0"><stop
         id="stop230"
         offset="0"
         style="stop-opacity:1;stop-color:#0088aa" /><stop
         id="stop232"
         offset="0.738051"
         style="stop-opacity:1;stop-color:#0088aa" /><stop
         id="stop234"
         offset="0.76040314"
         style="stop-opacity:1;stop-color:#0088aa" /><stop
         id="stop236"
         offset="0.873213"
         style="stop-opacity:1;stop-color:#0087a8" /><stop
         id="stop238"
         offset="0.94338086"
         style="stop-opacity:1;stop-color:#0087a8" /><stop
         id="stop240"
         offset="1"
         style="stop-opacity:1;stop-color:#0087a8" /></radialGradient><clipPath
       id="clipPath268"
       clipPathUnits="userSpaceOnUse"><path
         id="path266"
         d="M 35.9441,182.113 H 164.536 V 53.7332 H 35.9441 Z" /></clipPath><clipPath
       id="clipPath272"
       clipPathUnits="userSpaceOnUse"><path
         id="path270"
         d="m 113.505,182.113 c -42.768,0 -77.561,-34.786 -77.561,-77.544 0,-19.022 6.917,-36.96 18.963,-50.835 -0.237,1.546 -0.304,3.101 -0.206,4.666 1.146,18.155 24.924,31.475 45.903,43.227 3.834,2.148 7.543,4.226 10.941,6.243 3.522,2.09 7.367,4.239 11.339,6.456 18.121,10.12 40.676,22.715 41.622,36.598 0.474,6.956 -4.601,14.485 -15.087,22.38 -0.002,0.003 -0.005,0.004 -0.006,0.006 -11.076,5.78 -23.441,8.803 -35.908,8.803" /></clipPath><linearGradient
       id="linearGradient290"
       spreadMethod="pad"
       gradientTransform="matrix(123.04525,44.496845,44.496845,-123.04525,40.738647,104.665)"
       gradientUnits="userSpaceOnUse"
       y2="0"
       x2="1"
       y1="0"
       x1="0"><stop
         id="stop278"
         offset="0"
         style="stop-opacity:0;stop-color:#ffffff" /><stop
         id="stop280"
         offset="0.531176"
         style="stop-opacity:0;stop-color:#ffffff" /><stop
         id="stop282"
         offset="0.82909475"
         style="stop-opacity:0;stop-color:#ffffff" /><stop
         id="stop284"
         offset="0.936357"
         style="stop-opacity:0.65000381;stop-color:#ffffff" /><stop
         id="stop286"
         offset="0.97157901"
         style="stop-opacity:0.65000381;stop-color:#ffffff" /><stop
         id="stop288"
         offset="1"
         style="stop-opacity:0.65000381;stop-color:#ffffff" /></linearGradient><mask
       id="mask292"
       height="1"
       width="1"
       y="0"
       x="0"
       maskUnits="userSpaceOnUse"><g
         id="g302"><g
           id="g300"><g
             id="g298"><g
               id="g296"><path
                 id="path294"
                 style="fill:url(#linearGradient290);stroke:none"
                 d="M -32768,32767 H 32767 V -32768 H -32768 Z" /></g></g></g></g></mask><linearGradient
       id="linearGradient316"
       spreadMethod="pad"
       gradientTransform="matrix(123.04525,44.496845,44.496845,-123.04525,40.738647,104.665)"
       gradientUnits="userSpaceOnUse"
       y2="0"
       x2="1"
       y1="0"
       x1="0"><stop
         id="stop304"
         offset="0"
         style="stop-opacity:1;stop-color:#ffffff" /><stop
         id="stop306"
         offset="0.531176"
         style="stop-opacity:1;stop-color:#ffffff" /><stop
         id="stop308"
         offset="0.82909475"
         style="stop-opacity:1;stop-color:#ffffff" /><stop
         id="stop310"
         offset="0.936357"
         style="stop-opacity:1;stop-color:#ffffff" /><stop
         id="stop312"
         offset="0.97157901"
         style="stop-opacity:1;stop-color:#ffffff" /><stop
         id="stop314"
         offset="1"
         style="stop-opacity:1;stop-color:#ffffff" /></linearGradient><clipPath
       id="clipPath342"
       clipPathUnits="userSpaceOnUse"><path
         id="path340"
         d="M 61.6262,155.819 H 190.219 V 27.4397 H 61.6262 Z" /></clipPath><clipPath
       id="clipPath346"
       clipPathUnits="userSpaceOnUse"><path
         id="path344"
         d="m 112.658,27.44 c 42.768,0 77.561,34.786 77.561,77.544 0,19.022 -6.918,36.96 -18.964,50.835 0.237,-1.547 0.305,-3.101 0.206,-4.667 -1.146,-18.154 -24.924,-31.474 -45.902,-43.227 -3.834,-2.147 -7.543,-4.225 -10.942,-6.243 -3.521,-2.09 -7.366,-4.239 -11.338,-6.455 C 85.157,85.107 62.603,72.512 61.657,58.628 c -0.475,-6.955 4.601,-14.484 15.086,-22.38 0.003,-0.002 0.006,-0.004 0.007,-0.005 11.075,-5.78 23.44,-8.803 35.908,-8.803" /></clipPath><linearGradient
       id="linearGradient364"
       spreadMethod="pad"
       gradientTransform="matrix(-123.04525,-44.496845,-44.496845,123.04525,185.42398,104.88767)"
       gradientUnits="userSpaceOnUse"
       y2="0"
       x2="1"
       y1="0"
       x1="0"><stop
         id="stop352"
         offset="0"
         style="stop-opacity:0;stop-color:#ffffff" /><stop
         id="stop354"
         offset="0.531176"
         style="stop-opacity:0;stop-color:#ffffff" /><stop
         id="stop356"
         offset="0.82909475"
         style="stop-opacity:0;stop-color:#ffffff" /><stop
         id="stop358"
         offset="0.936357"
         style="stop-opacity:0.65000381;stop-color:#ffffff" /><stop
         id="stop360"
         offset="0.97157901"
         style="stop-opacity:0.65000381;stop-color:#ffffff" /><stop
         id="stop362"
         offset="1"
         style="stop-opacity:0.65000381;stop-color:#ffffff" /></linearGradient><mask
       id="mask366"
       height="1"
       width="1"
       y="0"
       x="0"
       maskUnits="userSpaceOnUse"><g
         id="g376"><g
           id="g374"><g
             id="g372"><g
               id="g370"><path
                 id="path368"
                 style="fill:url(#linearGradient364);stroke:none"
                 d="M -32768,32767 H 32767 V -32768 H -32768 Z" /></g></g></g></g></mask><linearGradient
       id="linearGradient390"
       spreadMethod="pad"
       gradientTransform="matrix(-123.04525,-44.496845,-44.496845,123.04525,185.42398,104.88767)"
       gradientUnits="userSpaceOnUse"
       y2="0"
       x2="1"
       y1="0"
       x1="0"><stop
         id="stop378"
         offset="0"
         style="stop-opacity:1;stop-color:#ffffff" /><stop
         id="stop380"
         offset="0.531176"
         style="stop-opacity:1;stop-color:#ffffff" /><stop
         id="stop382"
         offset="0.82909475"
         style="stop-opacity:1;stop-color:#ffffff" /><stop
         id="stop384"
         offset="0.936357"
         style="stop-opacity:1;stop-color:#ffffff" /><stop
         id="stop386"
         offset="0.97157901"
         style="stop-opacity:1;stop-color:#ffffff" /><stop
         id="stop388"
         offset="1"
         style="stop-opacity:1;stop-color:#ffffff" /></linearGradient><clipPath
       id="clipPath416"
       clipPathUnits="userSpaceOnUse"><path
         id="path414"
         d="m 32.085,104.579 c 0,-44.951 36.441,-81.391 81.392,-81.391 v 0 c 44.952,0 81.392,36.44 81.392,81.391 v 0 c 0,44.952 -36.44,81.392 -81.392,81.392 v 0 c -44.951,0 -81.392,-36.44 -81.392,-81.392" /></clipPath><clipPath
       id="clipPath424"
       clipPathUnits="userSpaceOnUse"><path
         id="path422"
         d="M -19.7658,245.78 H 143.018 V 82.9955 H -19.7658 Z" /></clipPath><clipPath
       id="clipPath428"
       clipPathUnits="userSpaceOnUse"><path
         id="path426"
         d="m 61.626,82.995 c 44.952,0 81.392,36.441 81.392,81.392 0,44.952 -36.44,81.392 -81.392,81.392 -44.951,0 -81.392,-36.44 -81.392,-81.392 0,-44.951 36.441,-81.392 81.392,-81.392" /></clipPath><radialGradient
       id="radialGradient442"
       spreadMethod="pad"
       gradientTransform="matrix(0,-81.392029,81.392029,0,61.626186,164.38754)"
       gradientUnits="userSpaceOnUse"
       r="1"
       cy="0"
       cx="0"
       fy="0"
       fx="0"><stop
         id="stop434"
         offset="0"
         style="stop-opacity:1;stop-color:#ffffff" /><stop
         id="stop436"
         offset="0.72807097"
         style="stop-opacity:0;stop-color:#ffffff" /><stop
         id="stop438"
         offset="0.783317"
         style="stop-opacity:0;stop-color:#ffffff" /><stop
         id="stop440"
         offset="1"
         style="stop-opacity:0;stop-color:#ffffff" /></radialGradient><mask
       id="mask444"
       height="1"
       width="1"
       y="0"
       x="0"
       maskUnits="userSpaceOnUse"><g
         id="g454"><g
           id="g452"><g
             id="g450"><g
               id="g448"><path
                 id="path446"
                 style="fill:url(#radialGradient442);stroke:none"
                 d="M -32768,32767 H 32767 V -32768 H -32768 Z" /></g></g></g></g></mask><radialGradient
       id="radialGradient464"
       spreadMethod="pad"
       gradientTransform="matrix(0,-81.392029,81.392029,0,61.626186,164.38754)"
       gradientUnits="userSpaceOnUse"
       r="1"
       cy="0"
       cx="0"
       fy="0"
       fx="0"><stop
         id="stop456"
         offset="0"
         style="stop-opacity:1;stop-color:#ffffff" /><stop
         id="stop458"
         offset="0.72807097"
         style="stop-opacity:1;stop-color:#ffffff" /><stop
         id="stop460"
         offset="0.783317"
         style="stop-opacity:1;stop-color:#ffffff" /><stop
         id="stop462"
         offset="1"
         style="stop-opacity:1;stop-color:#ffffff" /></radialGradient></defs><g
     transform="matrix(1.3333333,0,0,-1.3333333,0,281.76133)"
     id="g10"><g
       id="g132"><g
         id="g134"><g
           id="g140"><g
             id="g142"><path
               id="path152"
               style="fill:url(#radialGradient150);stroke:none"
               d="M 113.515,104.552 C 84.079,87.073 31.441,65.089 75.296,32.658 v 0 l 0.06,-0.033 c 11.374,-6.044 24.358,-9.464 38.149,-9.464 v 0 c 44.951,0 81.403,36.451 81.403,81.408 v 0 c 0,31.068 -17.419,58.087 -43.02,71.797 v 0 l -0.148,0.021 c 43.577,-32.814 -8.788,-54.361 -38.225,-71.835" /></g></g></g></g><g
       id="g154"><g
         id="g156"><g
           id="g162"><g
             id="g164"><path
               id="path178"
               style="fill:url(#radialGradient176);stroke:none"
               d="m 32.085,104.569 c 0,-31.171 17.534,-58.262 43.271,-71.944 v 0 l -0.06,0.033 c -43.855,32.431 8.783,54.415 38.219,71.894 v 0 c 29.437,17.474 81.802,39.021 38.225,71.835 v 0 l 0.148,-0.021 -0.148,0.082 c -11.395,6.076 -24.412,9.523 -38.235,9.523 v 0 c -44.968,0 -81.42,-36.451 -81.42,-81.402" /></g></g></g></g><g
       id="g1382"><g
         id="g12"><g
           id="g14"
           clip-path="url(#clipPath18)"><g
             id="g20"
             transform="translate(235.4028,133.128)"><path
               d="m 0,0 v 24.778 c 0,0.66 0.3,1.08 1.02,1.08 h 5.22 c 0.66,0 0.96,-0.36 0.96,-1.08 V 0.72 c 0,-6.66 2.16,-9.84 8.099,-9.84 5.64,0 7.74,2.939 7.74,9.599 v 24.299 c 0,0.72 0.24,1.08 1.02,1.08 h 4.68 c 0.66,0 0.96,-0.36 0.96,-1.08 V 0.06 C 29.699,-10.021 25.199,-14.82 15,-14.82 4.68,-14.82 0,-10.26 0,0"
               style="fill:#575756;fill-opacity:1;fill-rule:nonzero;stroke:none"
               id="path22" /></g><g
             id="g24"
             transform="translate(273.0825,120.048)"><path
               d="m 0,0 v 37.858 c 0,0.72 0.3,1.08 0.96,1.08 h 5.28 c 0.66,0 1.02,-0.36 1.02,-1.08 V 22.799 c 0,-0.6 0.3,-0.78 0.719,-0.78 0.421,0 0.721,0.18 1.021,0.6 l 10.979,15.299 c 0.66,0.96 1.02,1.02 1.74,1.02 h 5.34 c 0.42,0 0.6,-0.18 0.6,-0.54 0,-0.3 -0.12,-0.6 -0.72,-1.379 L 15,20.999 c -0.241,-0.3 -0.301,-0.48 -0.301,-0.72 0,-0.24 0.06,-0.42 0.24,-0.78 L 26.879,0.9 c 0.48,-0.72 0.6,-0.96 0.6,-1.32 0,-0.42 -0.24,-0.66 -0.78,-0.66 h -5.88 c -0.6,0 -0.96,0.12 -1.26,0.66 L 8.939,16.799 c -0.239,0.36 -0.479,0.48 -0.899,0.48 -0.54,0 -0.78,-0.24 -0.78,-0.78 V -0.06 c 0,-0.72 -0.3,-1.02 -1.02,-1.02 H 1.02 C 0.36,-1.08 0,-0.78 0,0"
               style="fill:#575756;fill-opacity:1;fill-rule:nonzero;stroke:none"
               id="path26" /></g><g
             id="g28"
             transform="translate(316.1626,138.3473)"><path
               d="m 0,0 c 0,13.679 6.899,21.419 19.319,21.419 2.82,0 5.64,-0.54 7.62,-1.38 1.08,-0.36 1.38,-0.72 1.38,-1.74 v -3.54 c 0,-0.78 -0.24,-1.08 -0.84,-1.08 -0.84,0 -3.48,2.16 -8.1,2.16 C 12.06,15.839 7.5,10.5 7.5,0.3 c 0,-9.42 4.319,-14.759 11.999,-14.759 5.16,0 7.14,2.339 8.1,2.339 0.54,0 0.72,-0.359 0.72,-0.839 V -16.5 c 0,-1.139 -0.36,-1.559 -1.92,-2.219 -2.04,-0.9 -5.1,-1.321 -8.16,-1.321 C 6.359,-20.04 0,-12.599 0,0"
               style="fill:#575756;fill-opacity:1;fill-rule:nonzero;stroke:none"
               id="path30" /></g><g
             id="g32"
             transform="translate(366.981,137.6271)"><path
               d="m 0,0 c 0.66,0 0.78,0.24 0.78,0.78 0,3.24 -1.26,7.14 -6.06,7.14 -4.499,0 -6.539,-3.9 -6.539,-7.14 0,-0.54 0.12,-0.78 0.779,-0.78 z m -18.899,-3.239 c 0,10.559 5.52,15.839 13.679,15.839 8.52,0 12.66,-5.16 12.66,-15.719 0,-1.021 -0.24,-1.38 -1.14,-1.38 h -17.34 c -0.779,0 -0.96,-0.301 -0.96,-1.2 0,-6.54 4.38,-8.34 8.94,-8.34 4.92,0 7.02,1.8 8.1,1.8 0.6,0 0.78,-0.42 0.78,-1.02 v -2.7 c 0,-0.72 -0.24,-1.2 -1.14,-1.62 -1.74,-0.72 -4.62,-1.5 -8.22,-1.5 -9.48,0 -15.359,4.38 -15.359,15.84"
               style="fill:#575756;fill-opacity:1;fill-rule:nonzero;stroke:none"
               id="path34" /></g><g
             id="g36"
             transform="translate(380.0015,120.048)"><path
               d="m 0,0 v 28.379 c 0,0.78 0.24,1.02 0.9,1.02 h 4.979 c 0.6,0 0.781,-0.3 0.781,-0.72 0,-0.3 0.179,-0.54 0.6,-0.54 1.079,0 3.479,2.04 8.159,2.04 7.08,0 9.42,-3.96 9.42,-11.58 V 0 c 0,-0.72 -0.42,-1.08 -1.08,-1.08 h -4.86 c -0.66,0 -1.02,0.36 -1.02,1.08 v 18.419 c 0,4.8 -1.44,6.66 -5.46,6.66 -2.76,0 -5.52,-0.9 -5.52,-3.42 L 6.899,0 c 0,-0.66 -0.299,-1.08 -1.02,-1.08 H 1.08 C 0.36,-1.08 0,-0.72 0,0"
               style="fill:#575756;fill-opacity:1;fill-rule:nonzero;stroke:none"
               id="path38" /></g><g
             id="g40"
             transform="translate(413.9009,126.8878)"><path
               d="m 0,0 v 16.979 c 0,0.48 -0.18,0.72 -0.6,0.72 h -3.36 c -0.72,0 -1.079,0.3 -1.079,1.08 v 2.76 c 0,0.72 0.359,1.02 1.079,1.02 h 3.36 c 0.42,0 0.6,0.18 0.6,0.72 v 6.3 c 0,0.719 0.3,1.08 1.021,1.08 H 5.88 c 0.78,0 1.08,-0.361 1.08,-1.08 v -6.3 c 0,-0.54 0.3,-0.72 0.72,-0.72 h 6.72 c 0.779,0 1.141,-0.36 1.141,-1.02 v -2.76 c 0,-0.72 -0.362,-1.08 -1.141,-1.08 H 7.62 c -0.36,0 -0.66,-0.18 -0.66,-0.72 V 1.02 c 0,-2.76 1.321,-3.959 3.84,-3.959 2.401,0 3.299,1.139 4.02,1.139 0.359,0 0.721,-0.24 0.721,-0.78 v -3.359 c 0,-1.5 -3.182,-2.401 -6.481,-2.401 C 2.82,-8.34 0,-5.52 0,0"
               style="fill:#575756;fill-opacity:1;fill-rule:nonzero;stroke:none"
               id="path42" /></g><g
             id="g44"
             transform="translate(434.0605,119.9884)"><path
               d="m 0,0 v 28.438 c 0,0.66 0.24,1.02 0.9,1.02 h 4.92 c 0.721,0 0.901,-0.24 0.901,-0.9 0,-0.54 0.06,-0.84 0.599,-0.84 1.02,0 3.241,2.34 6.539,2.34 2.041,0 2.401,-0.54 2.401,-1.5 v -3.66 c 0,-0.54 -0.24,-0.899 -0.84,-0.899 -0.719,0 -1.5,0.179 -3.061,0.179 C 9.301,24.178 6.9,22.739 6.9,19.319 V 0 C 6.9,-0.66 6.66,-1.021 6.061,-1.021 H 0.9 C 0.361,-1.021 0,-0.66 0,0"
               style="fill:#575756;fill-opacity:1;fill-rule:nonzero;stroke:none"
               id="path46" /></g><g
             id="g48"
             transform="translate(471.5,137.6271)"><path
               d="m 0,0 c 0.66,0 0.779,0.24 0.779,0.78 0,3.24 -1.259,7.14 -6.058,7.14 -4.5,0 -6.541,-3.9 -6.541,-7.14 0,-0.54 0.121,-0.78 0.781,-0.78 z m -18.898,-3.239 c 0,10.559 5.519,15.839 13.679,15.839 8.52,0 12.658,-5.16 12.658,-15.719 0,-1.021 -0.24,-1.38 -1.138,-1.38 h -17.34 c -0.781,0 -0.961,-0.301 -0.961,-1.2 0,-6.54 4.381,-8.34 8.939,-8.34 4.92,0 7.02,1.8 8.1,1.8 0.602,0 0.781,-0.42 0.781,-1.02 v -2.7 c 0,-0.72 -0.24,-1.2 -1.14,-1.62 -1.741,-0.72 -4.619,-1.5 -8.219,-1.5 -9.481,0 -15.359,4.38 -15.359,15.84"
               style="fill:#575756;fill-opacity:1;fill-rule:nonzero;stroke:none"
               id="path50" /></g><g
             id="g52"
             transform="translate(499.0996,119.9884)"><path
               d="m 0,0 v 23.758 c 0,0.54 -0.18,0.781 -0.659,0.781 H -3.6 c -0.66,0 -1.019,0.239 -1.019,0.96 v 3 c 0,0.719 0.359,0.959 1.019,0.959 h 2.941 c 0.479,0 0.659,0.24 0.659,0.72 v 3.18 c 0,5.46 2.94,8.4 8.28,8.4 2.88,0 4.92,-0.78 4.92,-1.98 v -2.46 c 0,-0.78 -0.36,-0.96 -0.721,-0.96 -0.599,0 -1.139,0.48 -2.58,0.48 -2.039,0 -2.939,-1.02 -2.939,-3.72 v -2.94 c 0,-0.48 0.24,-0.72 0.72,-0.72 h 4.08 c 0.78,0 0.96,-0.3 0.96,-0.959 v -3 c 0,-0.661 -0.241,-0.96 -0.96,-0.96 H 7.68 c -0.48,0 -0.72,-0.241 -0.72,-0.781 L 6.96,0 C 6.96,-0.66 6.66,-1.021 6,-1.021 H 0.96 C 0.36,-1.021 0,-0.66 0,0"
               style="fill:#575756;fill-opacity:1;fill-rule:nonzero;stroke:none"
               id="path54" /></g><g
             id="g56"
             transform="translate(535.04,134.4474)"><path
               d="m 0,0 c 0,7.439 -2.1,10.859 -6.779,10.859 -4.92,0 -6.96,-3.659 -6.96,-10.859 0,-7.56 2.219,-10.979 6.899,-10.979 C -2.279,-10.979 0,-7.56 0,0 m -20.759,0 c 0,9.419 4.38,15.779 13.98,15.779 C 2.64,15.779 7.08,10.02 7.08,0 c 0,-9.72 -4.32,-15.899 -13.859,-15.899 -9.6,0 -13.98,6.059 -13.98,15.899"
               style="fill:#575756;fill-opacity:1;fill-rule:nonzero;stroke:none"
               id="path58" /></g><g
             id="g60"
             transform="translate(548.2998,119.9884)"><path
               d="m 0,0 v 28.438 c 0,0.66 0.24,1.02 0.9,1.02 h 4.92 c 0.72,0 0.9,-0.24 0.9,-0.9 0,-0.54 0.06,-0.84 0.6,-0.84 1.02,0 3.24,2.34 6.539,2.34 2.04,0 2.401,-0.54 2.401,-1.5 v -3.66 c 0,-0.54 -0.24,-0.899 -0.84,-0.899 -0.721,0 -1.5,0.179 -3.061,0.179 C 9.3,24.178 6.9,22.739 6.9,19.319 V 0 C 6.9,-0.66 6.66,-1.021 6.061,-1.021 H 0.9 C 0.36,-1.021 0,-0.66 0,0"
               style="fill:#575756;fill-opacity:1;fill-rule:nonzero;stroke:none"
               id="path62" /></g><g
             id="g64"
             transform="translate(235.1401,58.754)"><path
               d="m 0,0 v 37.918 c 0,0.78 0.3,1.08 1.02,1.08 h 19.499 c 0.78,0 1.08,-0.3 1.08,-1.019 v -3.541 c 0,-0.66 -0.3,-0.959 -1.08,-0.959 H 7.92 c -0.42,0 -0.66,-0.241 -0.66,-0.781 v -9.479 c 0,-0.48 0.24,-0.72 0.66,-0.72 h 9.899 c 0.721,0 1.02,-0.3 1.02,-0.96 v -3.6 c 0,-0.66 -0.299,-0.96 -1.02,-0.96 H 7.92 c -0.42,0 -0.66,-0.24 -0.66,-0.72 V 5.279 C 7.26,4.739 7.5,4.5 7.98,4.5 h 13.739 c 0.78,0 0.96,-0.301 0.96,-1.021 v -3.54 c 0,-0.66 -0.18,-0.96 -0.96,-0.96 H 1.02 C 0.24,-1.021 0,-0.721 0,0"
               style="fill:#575756;fill-opacity:1;fill-rule:nonzero;stroke:none"
               id="path66" /></g><g
             id="g68"
             transform="translate(261.4199,72.673)"><path
               d="m 0,0 c 0,9.84 4.8,16.319 14.699,16.319 2.82,0 4.8,-0.42 6.48,-1.2 1.02,-0.42 1.26,-0.779 1.26,-1.559 v -3.18 c 0,-0.6 -0.24,-0.901 -0.78,-0.901 -0.9,0 -2.34,1.92 -6.24,1.92 -5.28,0 -8.279,-3.96 -8.279,-11.099 0,-7.079 3.119,-10.56 8.099,-10.56 3.72,0 5.46,1.74 6.3,1.74 0.66,0 0.9,-0.419 0.9,-1.2 v -2.759 c 0,-0.9 -0.54,-1.26 -1.56,-1.74 -1.68,-0.78 -4.26,-1.14 -6.9,-1.14 C 4.859,-15.359 0,-9.779 0,0"
               style="fill:#575756;fill-opacity:1;fill-rule:nonzero;stroke:none"
               id="path70" /></g><g
             id="g72"
             transform="translate(308.8188,73.213)"><path
               d="m 0,0 c 0,7.439 -2.1,10.859 -6.78,10.859 -4.919,0 -6.959,-3.659 -6.959,-10.859 0,-7.56 2.219,-10.979 6.9,-10.979 C -2.28,-10.979 0,-7.56 0,0 m -20.759,0 c 0,9.42 4.38,15.779 13.979,15.779 9.42,0 13.86,-5.759 13.86,-15.779 0,-9.72 -4.32,-15.899 -13.86,-15.899 -9.599,0 -13.979,6.059 -13.979,15.899"
               style="fill:#575756;fill-opacity:1;fill-rule:nonzero;stroke:none"
               id="path74" /></g><g
             id="g76"
             transform="translate(322.0796,58.754)"><path
               d="m 0,0 v 39.898 c 0,0.72 0.42,1.081 1.08,1.081 h 4.799 c 0.661,0 1.02,-0.421 1.02,-1.141 L 6.899,0 c 0,-0.66 -0.299,-1.021 -0.96,-1.021 H 1.02 C 0.36,-1.021 0,-0.66 0,0"
               style="fill:#575756;fill-opacity:1;fill-rule:nonzero;stroke:none"
               id="path78" /></g><g
             id="g80"
             transform="translate(355.918,73.213)"><path
               d="m 0,0 c 0,7.439 -2.1,10.859 -6.78,10.859 -4.919,0 -6.959,-3.659 -6.959,-10.859 0,-7.56 2.219,-10.979 6.899,-10.979 C -2.28,-10.979 0,-7.56 0,0 m -20.759,0 c 0,9.42 4.38,15.779 13.979,15.779 9.42,0 13.86,-5.759 13.86,-15.779 0,-9.72 -4.32,-15.899 -13.86,-15.899 -9.599,0 -13.979,6.059 -13.979,15.899"
               style="fill:#575756;fill-opacity:1;fill-rule:nonzero;stroke:none"
               id="path82" /></g><g
             id="g84"
             transform="translate(387.1782,66.4337)"><path
               d="m 0,0 v 14.399 c 0,2.22 -2.16,3.24 -5.04,3.24 -4.56,0 -7.739,-3.119 -7.739,-11.039 0,-6.54 2.219,-10.38 7.379,-10.38 3.24,0 5.4,1.38 5.4,3.78 m -16.439,-20.64 c -1.56,0.661 -1.92,1.08 -1.92,2.281 v 2.639 c 0,0.84 0.3,1.26 0.96,1.26 1.08,0 3.48,-2.279 9.539,-2.279 2.1,0 4.26,0.3 5.76,1.439 1.56,1.2 2.1,3.24 2.1,5.58 v 2.1 c 0,0.48 -0.06,0.78 -0.48,0.78 -0.78,0 -2.22,-1.86 -6.84,-1.86 -7.919,0 -12.539,5.76 -12.539,15.3 0,10.439 5.4,15.959 12.839,15.959 4.32,0 6,-1.98 6.78,-1.98 0.3,0 0.42,0.12 0.42,0.54 0.06,0.42 0.18,0.66 0.84,0.66 h 4.86 c 0.66,0 0.84,-0.36 0.84,-0.96 V -7.86 c 0,-4.44 -0.36,-7.619 -2.4,-10.14 -2.58,-3.119 -7.02,-4.079 -11.94,-4.079 -3.839,0 -6.96,0.72 -8.819,1.439"
               style="fill:#575756;fill-opacity:1;fill-rule:nonzero;stroke:none"
               id="path86" /></g><g
             id="g88"
             transform="translate(401.7578,45.7941)"><path
               d="M 0,0 V 3.061 C 0,3.9 0.36,4.2 0.96,4.2 c 0.24,0 0.72,-0.06 1.5,-0.06 1.2,0 2.16,0.36 2.939,2.04 1.08,2.52 1.321,3.42 1.321,4.02 0,0.42 -0.12,0.96 -0.361,1.68 L -3,40.618 c -0.18,0.601 -0.3,0.901 -0.3,1.2 0,0.361 0.24,0.601 0.78,0.601 h 5.1 c 0.6,0 0.96,-0.181 1.14,-0.841 l 6.3,-22.079 c 0.12,-0.42 0.24,-0.54 0.54,-0.54 0.24,0 0.36,0.181 0.48,0.601 l 5.999,22.079 c 0.181,0.66 0.601,0.78 1.2,0.78 h 4.26 c 0.48,0 0.72,-0.24 0.72,-0.601 0,-0.299 -0.06,-0.54 -0.24,-1.259 L 12.42,6.84 C 10.56,0.84 7.8,-1.439 3.06,-1.439 0.6,-1.439 0,-1.02 0,0"
               style="fill:#575756;fill-opacity:1;fill-rule:nonzero;stroke:none"
               id="path90" /></g><g
             id="g92"
             transform="translate(454.5576,83.173)"><path
               d="m 0,0 c 2.52,1.38 4.14,3.3 4.14,6.42 0,2.76 -1.56,4.559 -4.201,4.559 -2.819,0 -4.439,-1.74 -4.439,-4.379 0,-2.161 0.84,-3.6 3.24,-6.48 0.18,-0.24 0.36,-0.301 0.6,-0.301 0.24,0 0.42,0.061 0.66,0.181 m 5.939,-19.499 c 0.481,0.239 0.601,0.42 0.601,0.659 0,0.181 -0.061,0.361 -0.301,0.601 L -2.4,-7.74 c -0.18,0.18 -0.3,0.301 -0.6,0.301 -0.18,0 -0.42,-0.061 -0.66,-0.301 -1.92,-1.38 -3.6,-3.06 -3.6,-6.36 0,-4.859 3.72,-6.66 7.739,-6.66 2.221,0 4.081,0.42 5.46,1.261 M -14.1,-14.76 c 0,4.861 2.46,7.92 6.9,10.98 0.36,0.24 0.48,0.36 0.48,0.6 0,0.24 -0.12,0.42 -0.3,0.659 -2.339,2.581 -4.02,5.22 -4.02,8.76 0,5.1 3.601,9.12 11.16,9.12 5.999,0 10.56,-3 10.56,-8.939 C 10.68,2.04 8.22,-1.2 3.54,-3.72 3.18,-3.9 3.06,-4.14 3.06,-4.38 c 0,-0.18 0.06,-0.3 0.24,-0.54 l 7.199,-8.819 c 0.24,-0.24 0.421,-0.301 0.601,-0.301 0.299,0 0.42,0.181 0.599,0.54 0.72,1.681 1.08,3.24 1.08,5.88 0,0.54 0.241,0.96 0.96,0.96 h 3.9 c 0.84,0 1.08,-0.24 1.08,-1.26 0,-3.72 -0.659,-7.62 -2.88,-10.439 -0.18,-0.3 -0.239,-0.42 -0.239,-0.6 0,-0.24 0.059,-0.36 0.299,-0.66 l 3.42,-3.901 c 0.66,-0.779 0.84,-1.019 0.84,-1.379 0,-0.36 -0.24,-0.54 -0.72,-0.54 h -5.94 c -0.72,0 -0.96,0.18 -1.439,0.72 l -0.84,0.96 c -0.181,0.239 -0.3,0.3 -0.54,0.3 -0.181,0 -0.361,-0.061 -0.721,-0.24 -2.579,-1.62 -5.819,-2.46 -10.02,-2.46 -7.378,0 -14.039,3.36 -14.039,11.399"
               style="fill:#575756;fill-opacity:1;fill-rule:nonzero;stroke:none"
               id="path94" /></g><g
             id="g96"
             transform="translate(492.7168,58.754)"><path
               d="m 0,0 v 37.918 c 0,0.72 0.3,1.08 1.08,1.08 h 5.16 c 0.659,0 1.02,-0.36 1.02,-1.08 v -14.52 c 0,-0.599 0.24,-0.779 0.78,-0.779 h 14.039 c 0.481,0 0.72,0.18 0.72,0.72 v 14.579 c 0,0.72 0.42,1.08 1.08,1.08 h 5.22 c 0.719,0 1.02,-0.36 1.02,-1.08 L 30.119,0 c 0,-0.721 -0.301,-1.021 -1.02,-1.021 h -5.28 c -0.66,0 -1.02,0.3 -1.02,1.021 v 16.259 c 0,0.6 -0.3,0.72 -0.72,0.72 H 7.979 C 7.5,16.979 7.26,16.859 7.26,16.259 V 0 c 0,-0.721 -0.3,-1.021 -1.02,-1.021 H 1.02 C 0.3,-1.021 0,-0.721 0,0"
               style="fill:#575756;fill-opacity:1;fill-rule:nonzero;stroke:none"
               id="path98" /></g><g
             id="g100"
             transform="translate(530.9365,45.7941)"><path
               d="M 0,0 V 3.061 C 0,3.9 0.36,4.2 0.96,4.2 c 0.24,0 0.72,-0.06 1.5,-0.06 1.2,0 2.16,0.36 2.939,2.04 1.08,2.52 1.321,3.42 1.321,4.02 0,0.42 -0.12,0.96 -0.361,1.68 L -3,40.618 c -0.18,0.601 -0.3,0.901 -0.3,1.2 0,0.361 0.24,0.601 0.78,0.601 h 5.1 c 0.6,0 0.96,-0.181 1.14,-0.841 l 6.3,-22.079 c 0.12,-0.42 0.24,-0.54 0.54,-0.54 0.24,0 0.36,0.181 0.48,0.601 l 5.999,22.079 c 0.181,0.66 0.601,0.78 1.2,0.78 h 4.26 c 0.48,0 0.72,-0.24 0.72,-0.601 0,-0.299 -0.06,-0.54 -0.24,-1.259 L 12.42,6.84 C 10.56,0.84 7.8,-1.439 3.06,-1.439 0.6,-1.439 0,-1.02 0,0"
               style="fill:#575756;fill-opacity:1;fill-rule:nonzero;stroke:none"
               id="path102" /></g><g
             id="g104"
             transform="translate(575.9365,65.5939)"><path
               d="m 0,0 v 15.179 c 0,2.219 -2.101,3.3 -4.8,3.3 -5.16,0 -7.86,-4.08 -7.86,-11.28 0,-6.42 2.221,-10.499 7.68,-10.499 C -2.4,-3.3 0,-2.4 0,0 m -19.739,7.14 c 0,10.739 5.279,16.258 13.259,16.258 3.9,0 5.339,-1.379 6.06,-1.379 0.359,0 0.42,0.299 0.42,0.719 v 10.321 c 0,0.719 0.359,1.08 1.08,1.08 h 4.859 c 0.781,0 1.02,-0.361 1.02,-1.08 V -6.84 c 0,-0.66 -0.18,-1.02 -1.079,-1.02 H 1.199 c -0.54,0 -0.84,0.24 -0.84,0.78 0,0.3 -0.059,0.6 -0.479,0.6 -0.901,0 -2.58,-1.8 -7.02,-1.8 -8.04,0 -12.599,5.82 -12.599,15.42"
               style="fill:#575756;fill-opacity:1;fill-rule:nonzero;stroke:none"
               id="path106" /></g><g
             id="g108"
             transform="translate(590.7559,58.754)"><path
               d="m 0,0 v 28.438 c 0,0.661 0.24,1.021 0.9,1.021 h 4.92 c 0.72,0 0.9,-0.24 0.9,-0.9 0,-0.54 0.06,-0.84 0.6,-0.84 1.02,0 3.24,2.34 6.539,2.34 2.04,0 2.401,-0.54 2.401,-1.5 v -3.661 c 0,-0.54 -0.24,-0.899 -0.84,-0.899 -0.721,0 -1.5,0.18 -3.061,0.18 C 9.3,24.179 6.9,22.739 6.9,19.319 V 0 C 6.9,-0.66 6.66,-1.021 6.061,-1.021 H 0.9 C 0.36,-1.021 0,-0.66 0,0"
               style="fill:#575756;fill-opacity:1;fill-rule:nonzero;stroke:none"
               id="path110" /></g><g
             id="g112"
             transform="translate(630.0557,73.213)"><path
               d="m 0,0 c 0,7.439 -2.1,10.859 -6.779,10.859 -4.92,0 -6.96,-3.659 -6.96,-10.859 0,-7.56 2.219,-10.979 6.899,-10.979 C -2.28,-10.979 0,-7.56 0,0 m -20.759,0 c 0,9.42 4.38,15.779 13.98,15.779 C 2.64,15.779 7.08,10.02 7.08,0 c 0,-9.72 -4.32,-15.899 -13.859,-15.899 -9.6,0 -13.98,6.059 -13.98,15.899"
               style="fill:#575756;fill-opacity:1;fill-rule:nonzero;stroke:none"
               id="path114" /></g><g
             id="g116"
             transform="translate(643.3154,58.754)"><path
               d="m 0,0 v 39.898 c 0,0.72 0.42,1.081 1.08,1.081 h 4.8 c 0.66,0 1.02,-0.421 1.02,-1.141 V 0 C 6.9,-0.66 6.6,-1.021 5.94,-1.021 H 1.021 C 0.36,-1.021 0,-0.66 0,0"
               style="fill:#575756;fill-opacity:1;fill-rule:nonzero;stroke:none"
               id="path118" /></g><g
             id="g120"
             transform="translate(677.1543,73.213)"><path
               d="m 0,0 c 0,7.439 -2.1,10.859 -6.779,10.859 -4.92,0 -6.96,-3.659 -6.96,-10.859 0,-7.56 2.219,-10.979 6.899,-10.979 C -2.279,-10.979 0,-7.56 0,0 m -20.759,0 c 0,9.42 4.38,15.779 13.98,15.779 C 2.64,15.779 7.08,10.02 7.08,0 c 0,-9.72 -4.32,-15.899 -13.859,-15.899 -9.6,0 -13.98,6.059 -13.98,15.899"
               style="fill:#575756;fill-opacity:1;fill-rule:nonzero;stroke:none"
               id="path122" /></g><g
             id="g124"
             transform="translate(708.415,66.4337)"><path
               d="m 0,0 v 14.399 c 0,2.22 -2.16,3.24 -5.04,3.24 -4.56,0 -7.74,-3.119 -7.74,-11.039 0,-6.54 2.22,-10.38 7.38,-10.38 3.24,0 5.4,1.38 5.4,3.78 m -16.439,-20.64 c -1.561,0.661 -1.92,1.08 -1.92,2.281 v 2.639 c 0,0.84 0.299,1.26 0.96,1.26 1.08,0 3.479,-2.279 9.539,-2.279 2.1,0 4.259,0.3 5.759,1.439 C -0.54,-14.1 0,-12.06 0,-9.72 v 2.1 c 0,0.48 -0.061,0.78 -0.48,0.78 -0.781,0 -2.22,-1.86 -6.84,-1.86 -7.92,0 -12.539,5.76 -12.539,15.3 0,10.439 5.399,15.959 12.838,15.959 4.321,0 6,-1.98 6.781,-1.98 0.3,0 0.42,0.12 0.42,0.54 0.059,0.42 0.179,0.66 0.84,0.66 h 4.859 c 0.66,0 0.841,-0.36 0.841,-0.96 V -7.86 c 0,-4.44 -0.361,-7.619 -2.401,-10.14 -2.58,-3.119 -7.019,-4.079 -11.939,-4.079 -3.84,0 -6.96,0.72 -8.819,1.439"
               style="fill:#575756;fill-opacity:1;fill-rule:nonzero;stroke:none"
               id="path126" /></g><g
             id="g128"
             transform="translate(722.9951,45.7941)"><path
               d="M 0,0 V 3.061 C 0,3.9 0.36,4.2 0.96,4.2 c 0.24,0 0.72,-0.06 1.5,-0.06 1.2,0 2.16,0.36 2.939,2.04 1.08,2.52 1.321,3.42 1.321,4.02 0,0.42 -0.12,0.96 -0.361,1.68 L -3,40.618 c -0.18,0.601 -0.3,0.901 -0.3,1.2 0,0.361 0.24,0.601 0.78,0.601 h 5.1 c 0.6,0 0.96,-0.181 1.14,-0.841 l 6.3,-22.079 c 0.12,-0.42 0.24,-0.54 0.54,-0.54 0.24,0 0.36,0.181 0.48,0.601 l 5.999,22.079 c 0.181,0.66 0.601,0.78 1.2,0.78 h 4.26 c 0.48,0 0.72,-0.24 0.72,-0.601 0,-0.299 -0.06,-0.54 -0.24,-1.259 L 12.42,6.84 C 10.56,0.84 7.8,-1.439 3.06,-1.439 0.6,-1.439 0,-1.02 0,0"
               style="fill:#575756;fill-opacity:1;fill-rule:nonzero;stroke:none"
               id="path130" /></g></g></g><g
         id="g180"><g
           id="g182"
           clip-path="url(#clipPath186)"><g
             id="g188"><g
               id="g190" /><g
               id="g260"><g
                 clip-path="url(#clipPath194)"
                 id="g258"
                 style="opacity:0.49000501"><g
                   id="g256"><g
                     clip-path="url(#clipPath198)"
                     id="g254"><g
                       id="g252"><g
                         id="g244" /><g
                         mask="url(#mask218)"
                         id="g250"><g
                           id="g248"><path
                             d="m 113.478,23.188 c 44.951,0 81.391,36.44 81.391,81.391 0,44.952 -36.44,81.393 -81.391,81.393 -44.952,0 -81.393,-36.441 -81.393,-81.393 0,-44.951 36.441,-81.391 81.393,-81.391"
                             style="fill:url(#radialGradient242);stroke:none"
                             id="path246" /></g></g></g></g></g></g></g></g><g
             id="g262"><g
               id="g264" /><g
               id="g334"><g
                 clip-path="url(#clipPath268)"
                 id="g332"
                 style="opacity:0.60000598"><g
                   id="g330"><g
                     clip-path="url(#clipPath272)"
                     id="g328"><g
                       id="g326"><g
                         id="g318" /><g
                         mask="url(#mask292)"
                         id="g324"><g
                           id="g322"><path
                             d="m 113.505,182.113 c -42.768,0 -77.561,-34.786 -77.561,-77.544 0,-19.022 6.917,-36.96 18.963,-50.835 -0.237,1.546 -0.304,3.101 -0.206,4.666 1.146,18.155 24.924,31.475 45.903,43.227 3.834,2.148 7.543,4.226 10.941,6.243 3.522,2.09 7.367,4.239 11.339,6.456 18.121,10.12 40.676,22.715 41.622,36.598 0.474,6.956 -4.601,14.485 -15.087,22.38 -0.002,0.003 -0.005,0.004 -0.006,0.006 -11.076,5.78 -23.441,8.803 -35.908,8.803"
                             style="fill:url(#linearGradient316);stroke:none"
                             id="path320" /></g></g></g></g></g></g></g></g><g
             id="g336"><g
               id="g338" /><g
               id="g408"><g
                 clip-path="url(#clipPath342)"
                 id="g406"
                 style="opacity:0.60000598"><g
                   id="g404"><g
                     clip-path="url(#clipPath346)"
                     id="g402"><g
                       id="g400"><g
                         id="g392" /><g
                         mask="url(#mask366)"
                         id="g398"><g
                           id="g396"><path
                             d="m 112.658,27.44 c 42.768,0 77.561,34.786 77.561,77.544 0,19.022 -6.918,36.96 -18.964,50.835 0.237,-1.547 0.305,-3.101 0.206,-4.667 -1.146,-18.154 -24.924,-31.474 -45.902,-43.227 -3.834,-2.147 -7.543,-4.225 -10.942,-6.243 -3.521,-2.09 -7.366,-4.239 -11.338,-6.455 C 85.157,85.107 62.603,72.512 61.657,58.628 c -0.475,-6.955 4.601,-14.484 15.086,-22.38 0.003,-0.002 0.006,-0.004 0.007,-0.005 11.075,-5.78 23.44,-8.803 35.908,-8.803"
                             style="fill:url(#linearGradient390);stroke:none"
                             id="path394" /></g></g></g></g></g></g></g></g></g></g></g><g
       id="g410"><g
         clip-path="url(#clipPath416)"
         id="g412"><g
           id="g418"><g
             id="g420" /><g
             id="g482"><g
               style="opacity:0.5"
               id="g480"
               clip-path="url(#clipPath424)"><g
                 id="g478"><g
                   id="g476"
                   clip-path="url(#clipPath428)"><g
                     id="g474"><g
                       id="g466" /><g
                       id="g472"
                       mask="url(#mask444)"><g
                         id="g470"><path
                           id="path468"
                           style="fill:url(#radialGradient464);stroke:none"
                           d="m 61.626,82.995 c 44.952,0 81.392,36.441 81.392,81.392 0,44.952 -36.44,81.392 -81.392,81.392 -44.951,0 -81.392,-36.44 -81.392,-81.392 0,-44.951 36.441,-81.392 81.392,-81.392" /></g></g></g></g></g></g></g></g></g></g></g></svg>